<?xml version="1.0" encoding="UTF-8"?>
<svg id="Layer_1" data-name="Layer 1" xmlns="http://www.w3.org/2000/svg" viewBox="0 0 633 633">
  <defs>
    <style>
      .cls-1 {
        fill: #fff;
      }

      .cls-2 {
        fill: #282828;
      }
    </style>
  </defs>
  <rect class="cls-1" x="269.03" y="123.55" width="92.95" height="92.95"/>
  <path class="cls-1" d="m313.56,16.51c-81.95,1.04-148.06,67.79-148.06,149.99,0,82.84,67.16,150,150,150,82.84,0,150,67.15,150,150,0,82.19-66.11,148.95-148.06,149.99,164.79-1.04,298.06-134.96,298.06-299.99,0-165.04-133.27-298.95-298.06-299.99-.65,0-1.29,0-1.94,0s-1.29,0-1.94,0Zm-37.61,149.99c0-21.85,17.7-39.56,39.55-39.56,21.84,0,39.55,17.71,39.55,39.56,0,21.84-17.71,39.55-39.55,39.55s-39.55-17.71-39.55-39.55Z"/>
  <path class="cls-2" d="m465.5,466.49c0,82.19-66.11,148.95-148.06,149.99-.65.01-1.29.01-1.94.01s-1.29,0-1.94-.01c-164.8-1.04-298.06-134.96-298.06-299.99S148.76,17.54,313.56,16.51c-81.95,1.04-148.06,67.79-148.06,149.99s67.16,150,150,150,150,67.15,150,150Z"/>
  <path class="cls-2" d="m316.5,16.97c165.42,0,299.53,134.1,299.53,299.53s-134.1,299.53-299.53,299.53S16.97,481.92,16.97,316.5,151.08,16.97,316.5,16.97m0-16.97c-42.72,0-84.17,8.37-123.2,24.88-37.69,15.94-71.54,38.76-100.6,67.82-29.06,29.06-51.88,62.91-67.82,100.6C8.37,232.33,0,273.78,0,316.5s8.37,84.17,24.88,123.2c15.94,37.69,38.76,71.54,67.82,100.6,29.06,29.06,62.91,51.88,100.6,67.82,39.03,16.51,80.48,24.88,123.2,24.88s84.17-8.37,123.2-24.88c37.69-15.94,71.54-38.76,100.6-67.82,29.06-29.06,51.88-62.91,67.82-100.6,16.51-39.03,24.88-80.48,24.88-123.2s-8.37-84.17-24.88-123.2c-15.94-37.69-38.76-71.54-67.82-100.6-29.06-29.06-62.91-51.88-100.6-67.82C400.67,8.37,359.22,0,316.5,0h0Z"/>
  <path class="cls-2" d="m315.5,216.5c-10.83,0-19.19-3.02-25.07-9.06-5.88-6.04-8.82-14.5-8.82-25.38h13.89c0,6.94,1.77,12.34,5.31,16.18,3.54,3.84,8.55,5.76,15.03,5.76s11.15-1.91,14.55-5.73,5.1-9.22,5.1-16.22v-65.56h13.89v65.56c0,10.93-2.99,19.4-8.96,25.42-5.97,6.02-14.28,9.03-24.93,9.03Zm-5.83-86.81v-13.19h32.36v13.19h-32.36Z"/>
  <path class="cls-1" d="m283.11,516.71v-100h14.08v100h-14.08Zm2.96-43.1v-13.38h59.23v13.38h-59.23Zm47.75,43.1v-100h14.08v100h-14.08Z"/>
</svg>